HIERARCHY
ROOT Hips
{
    OFFSET 0.000000 0.000000 0.000000
    CHANNELS 6 Xposition Yposition Zposition Zrotation Xrotation Yrotation
    JOINT Spine
    {
        OFFSET -0.000000 14.517291 0.000000
        CHANNELS 3 Zrotation Xrotation Yrotation
        JOINT Spine1
        {
            OFFSET -0.000000 37.558300 0.000000
            CHANNELS 3 Zrotation Xrotation Yrotation
            JOINT Neck
            {
                OFFSET -0.000000 37.404057 3.400369
                CHANNELS 3 Zrotation Xrotation Yrotation
                JOINT Head
                {
                    OFFSET -0.000000 24.785618 -3.540803
                    CHANNELS 3 Zrotation Xrotation Yrotation
                    End Site
                    {
                        OFFSET -0.000000 35.408028 0.000000
                    }
                }
            }
            JOINT LeftShoulder
            {
                OFFSET 6.992933 33.973492 -0.192664
                CHANNELS 3 Zrotation Xrotation Yrotation
                JOINT LeftArm
                {
                    OFFSET 21.527611 0.000000 0.000000
                    CHANNELS 3 Zrotation Xrotation Yrotation
                    JOINT LeftForeArm
                    {
                        OFFSET 56.353916 0.000000 0.000000
                        CHANNELS 3 Zrotation Xrotation Yrotation
                        JOINT LeftHand
                        {
                            OFFSET 47.774071 0.000000 0.000000
                            CHANNELS 3 Zrotation Xrotation Yrotation
                            End Site
                            {
                                OFFSET 26.556021 0.000000 0.000000
                            }
                        }
                    }
                }
            }
            JOINT RightShoulder
            {
                OFFSET -7.065357 33.973492 -0.192664
                CHANNELS 3 Zrotation Xrotation Yrotation
                JOINT RightArm
                {
                    OFFSET -21.527611 0.000000 0.000000
                    CHANNELS 3 Zrotation Xrotation Yrotation
                    JOINT RightForeArm
                    {
                        OFFSET -56.353916 0.000000 0.000000
                        CHANNELS 3 Zrotation Xrotation Yrotation
                        JOINT RightHand
                        {
                            OFFSET -47.774071 0.000000 0.000000
                            CHANNELS 3 Zrotation Xrotation Yrotation
                            End Site
                            {
                                OFFSET -26.556021 0.000000 0.000000
                            }
                        }
                    }
                }
            }
        }
    }
    JOINT LeftUpLeg
    {
        OFFSET 17.704014 0.000000 0.000000
        CHANNELS 3 Zrotation Xrotation Yrotation
        JOINT LeftLeg
        {
            OFFSET -0.000000 -81.181816 0.000000
            CHANNELS 3 Zrotation Xrotation Yrotation
            JOINT LeftFoot
            {
                OFFSET -0.000000 -62.821102 0.000000
                CHANNELS 3 Zrotation Xrotation Yrotation
                JOINT LeftToeBase
                {
                    OFFSET -0.000000 -11.507608 26.556021
                    CHANNELS 3 Zrotation Xrotation Yrotation
                    End Site
                    {
                        OFFSET -0.000000 0.000000 7.081605
                    }
                }
            }
        }
    }
    JOINT RightUpLeg
    {
        OFFSET -17.704014 0.000000 0.000000
        CHANNELS 3 Zrotation Xrotation Yrotation
        JOINT RightLeg
        {
            OFFSET -0.000000 -81.181816 0.000000
            CHANNELS 3 Zrotation Xrotation Yrotation
            JOINT RightFoot
            {
                OFFSET -0.000000 -62.821102 0.000000
                CHANNELS 3 Zrotation Xrotation Yrotation
                JOINT RightToeBase
                {
                    OFFSET -0.000000 -11.507608 26.556021
                    CHANNELS 3 Zrotation Xrotation Yrotation
                    End Site
                    {
                        OFFSET -0.000000 0.000000 7.081605
                    }
                }
            }
        }
    }
}
MOTION
Frames:    12
Frame Time:    0.008333
32.144840    158.831375    -104.179146    -0.461051    -0.699598    25.486122    -1.789717    -3.186756    -1.330344    -7.136576    2.099252    -0.296177    10.992599    4.183163    -4.582630    6.710699    -5.647694    -4.717227    6.195868    10.355040    -14.403810    -31.426273    25.112295    -27.432180    -29.870722    1.824755    -14.399177    -8.450367    0.069390    -27.949181    -6.989983    4.960607    -8.075590    19.521532    25.334259    9.765561    16.132402    13.425138    4.030770    2.356763    13.364841    24.393675    9.174309    -0.512715    0.455772    -11.250422    25.158354    -16.737930    7.255867    -22.655699    44.388870    0.000000    0.000000    0.000000    -14.509177    -27.904713    -8.095707    11.621410    27.714695    -13.810371    1.966700    13.008721    -13.138777    0.000000    0.000000    0.000000    
32.138474    158.834702    -104.181038    -0.458270    -0.704713    25.538830    -1.809754    -3.183242    -1.361336    -7.139397    2.084337    -0.307116    11.027928    4.195566    -4.581503    6.711886    -5.657735    -4.717988    6.216633    10.361326    -14.415845    -31.412327    25.053543    -27.497969    -29.933598    1.875061    -14.367678    -8.441806    0.116239    -27.931065    -6.960852    4.955174    -8.084815    19.519180    25.304470    9.787177    16.145504    13.442883    4.051120    2.316177    13.371200    24.413979    9.179131    -0.520415    0.469552    -11.233932    25.161285    -16.758728    7.256417    -22.634630    44.346336    0.000000    0.000000    0.000000    -14.525519    -27.885876    -8.098836    11.625036    27.719748    -13.820811    1.986035    12.997715    -13.160780    0.000000    0.000000    0.000000    
32.128841    158.835632    -104.183945    -0.457265    -0.704382    25.583736    -1.835506    -3.182769    -1.384034    -7.132844    2.065925    -0.315757    11.079885    4.193732    -4.571391    6.680645    -5.659453    -4.719328    6.230212    10.357027    -14.440042    -31.399586    24.973927    -27.559824    -30.013937    1.810518    -14.290989    -8.469940    0.086906    -28.162283    -6.942502    4.953963    -8.092787    19.538460    25.318014    9.797656    16.112766    13.450695    4.081626    2.288429    13.371101    24.461609    9.188525    -0.537586    0.478922    -11.230834    25.168270    -16.786644    7.244932    -22.626965    44.325329    0.000000    0.000000    0.000000    -14.537345    -27.880728    -8.104687    11.621178    27.730547    -13.827066    2.016560    12.989733    -13.195524    0.000000    0.000000    0.000000    
32.125805    158.832138    -104.184761    -0.448200    -0.715263    25.636524    -1.853300    -3.174122    -1.411820    -7.137612    2.057223    -0.325315    11.109996    4.186682    -4.564446    6.680305    -5.665099    -4.715913    6.249433    10.353936    -14.458727    -31.368589    24.837967    -27.652658    -30.183687    1.870712    -14.218846    -8.386773    0.131395    -28.268990    -6.926552    4.943788    -8.111442    19.548700    25.325558    9.829885    16.104027    13.489941    4.079947    2.237141    13.401504    24.533215    9.191857    -0.544804    0.485280    -11.220570    25.196087    -16.826628    7.235856    -22.639107    44.312752    0.000000    0.000000    0.000000    -14.559842    -27.853582    -8.093521    11.644273    27.729837    -13.884431    2.020064    12.962744    -13.197454    0.000000    0.000000    0.000000    
32.118099    158.823608    -104.185295    -0.442584    -0.715656    25.680838    -1.882616    -3.179192    -1.431796    -7.123531    2.053949    -0.332238    11.110264    4.186313    -4.564460    6.702061    -5.685128    -4.710708    6.257889    10.334671    -14.489950    -31.345592    24.741772    -27.725960    -30.288872    1.899149    -14.194502    -8.398892    0.159245    -28.316257    -6.919183    4.940417    -8.118817    19.561037    25.322269    9.844934    16.099617    13.507294    4.082891    2.259575    13.423815    24.555599    9.196690    -0.561883    0.472225    -11.224300    25.220688    -16.846750    7.261213    -22.636143    44.303715    0.000000    0.000000    0.000000    -14.574189    -27.846863    -8.090701    11.648029    27.744663    -13.901762    2.010291    12.931691    -13.209690    0.000000    0.000000    0.000000    
32.112190    158.813889    -104.181969    -0.438269    -0.726193    25.721411    -1.899243    -3.186830    -1.453678    -7.124168    2.066657    -0.338511    11.131468    4.195350    -4.564664    6.702809    -5.726881    -4.709864    6.282026    10.313441    -14.507825    -31.316759    24.644182    -27.817337    -30.395300    1.943488    -14.252804    -8.398756    0.170640    -28.282578    -6.896537    4.925722    -8.122038    19.564949    25.362907    9.856711    16.072931    13.513205    4.106101    2.257495    13.427541    24.580063    9.206636    -0.570419    0.454147    -11.227276    25.246384    -16.861622    7.267112    -22.649990    44.291904    0.000000    0.000000    0.000000    -14.581238    -27.833223    -8.074937    11.653161    27.765846    -13.924675    2.025977    12.893763    -13.222240    0.000000    0.000000    0.000000    
32.110847    158.801117    -104.178215    -0.428366    -0.738682    25.760944    -1.917748    -3.190693    -1.465698    -7.124258    2.079608    -0.341456    11.156181    4.181736    -4.562799    6.689981    -5.748072    -4.713321    6.297416    10.293250    -14.545255    -31.284763    24.533533    -27.907253    -30.499617    1.988484    -14.310389    -8.412683    0.188155    -28.269302    -6.874119    4.916182    -8.135708    19.569445    25.368654    9.872729    16.067415    13.514550    4.109990    2.252565    13.427065    24.559208    9.207811    -0.570830    0.432084    -11.228198    25.263960    -16.862104    7.272462    -22.666239    44.277889    0.000000    0.000000    0.000000    -14.595574    -27.818293    -8.057067    11.669432    27.786564    -13.931153    2.044259    12.858699    -13.284670    0.000000    0.000000    0.000000    
32.107468    158.788177    -104.171371    -0.421809    -0.759262    25.794649    -1.930463    -3.190126    -1.478371    -7.121433    2.093372    -0.344755    11.156164    4.153360    -4.562237    6.701028    -5.746401    -4.713570    6.315600    10.275913    -14.565231    -31.245455    24.410162    -28.018431    -30.643650    2.030482    -14.383619    -8.372736    0.183049    -28.306210    -6.856961    4.915261    -8.141928    19.573336    25.347620    9.898814    16.081570    13.526408    4.087331    2.241675    13.439058    24.550034    9.218922    -0.564192    0.402208    -11.241756    25.283516    -16.870680    7.308692    -22.672440    44.288296    0.000000    0.000000    0.000000    -14.600381    -27.799509    -8.034294    11.685281    27.813721    -13.933337    2.043742    12.819411    -13.310211    0.000000    0.000000    0.000000    
32.111912    158.776581    -104.163383    -0.408198    -0.775052    25.822691    -1.944910    -3.202336    -1.478782    -7.122653    2.119486    -0.343100    11.173361    4.142035    -4.562045    6.684473    -5.777836    -4.717840    6.328568    10.240805    -14.598014    -31.202730    24.277325    -28.146490    -30.839611    2.041577    -14.444312    -8.333468    0.143982    -28.350246    -6.843253    4.917002    -8.157466    19.588156    25.377932    9.919677    16.058849    13.514709    4.078405    2.216518    13.424682    24.581753    9.212998    -0.556874    0.380491    -11.240403    25.309471    -16.878527    7.311192    -22.692787    44.291023    0.000000    0.000000    0.000000    -14.617174    -27.778219    -8.035348    11.696254    27.840017    -13.919502    2.045228    12.780423    -13.346884    0.000000    0.000000    0.000000    
32.111084    158.762039    -104.159294    -0.402270    -0.793719    25.841421    -1.957549    -3.213875    -1.477064    -7.105817    2.148547    -0.340786    11.141392    4.108956    -4.559271    6.718228    -5.775859    -4.708316    6.327135    10.194164    -14.632464    -31.153469    24.162954    -28.264585    -30.988060    2.067326    -14.561966    -8.385372    0.132497    -28.389030    -6.845427    4.890865    -8.166933    19.599716    25.398191    9.933817    16.064703    13.517083    4.059553    2.200448    13.426448    24.603355    9.221244    -0.552611    0.345873    -11.257216    25.335646    -16.881390    7.347208    -22.707209    44.309303    0.000000    0.000000    0.000000    -14.618792    -27.765230    -8.013011    11.715338    27.860188    -13.949250    2.039485    12.755641    -13.362336    0.000000    0.000000    0.000000    
32.117065    158.750320    -104.150558    -0.392206    -0.815479    25.858494    -1.956940    -3.229508    -1.471832    -7.112000    2.180792    -0.336919    11.124225    4.080554    -4.558970    6.732260    -5.774852    -4.706275    6.343036    10.158280    -14.653322    -31.093575    24.047203    -28.416096    -31.169653    2.061403    -14.712827    -8.389023    0.062283    -28.422874    -6.837112    4.879548    -8.175613    19.609238    25.420156    9.944174    16.058176    13.503005    4.064252    2.219476    13.415821    24.594555    9.224320    -0.537023    0.315773    -11.269816    25.354624    -16.885925    7.373997    -22.720308    44.330845    0.000000    0.000000    0.000000    -14.622447    -27.742670    -8.011582    11.716500    27.881624    -13.955578    2.043370    12.723555    -13.362461    0.000000    0.000000    0.000000    
32.119957    158.733994    -104.142761    -0.381153    -0.835087    25.871197    -1.965723    -3.241531    -1.467817    -7.102247    2.202725    -0.334220    11.105813    4.047003    -4.548799    6.730085    -5.762978    -4.698050    6.339007    10.120249    -14.686201    -31.029364    23.994516    -28.528992    -31.289988    2.037824    -14.993261    -8.421928    -0.053467    -28.374029    -6.844689    4.862168    -8.178743    19.628477    25.438366    9.956225    16.059530    13.505435    4.055528    2.232336    13.422412    24.608482    9.229990    -0.529140    0.276901    -11.296206    25.381090    -16.872652    7.394517    -22.741051    44.347149    0.000000    0.000000    0.000000    -14.630816    -27.727728    -8.011959    11.729493    27.909613    -13.974965    2.032180    12.701398    -13.361872    0.000000    0.000000    0.000000    
